<svg viewBox="0 0 100 100" xmlns="http://www.w3.org/2000/svg">

  <rect x="5" y="5" width="90" height="90" rx="15" ry="15" fill="url(#bgGradient)" stroke="#2C3E50" stroke-width="3"/>
  
  <rect x="20" y="35" width="60" height="40" rx="12" ry="12" fill="url(#bgGradient)" stroke="#2C3E50" stroke-width="4"/>
  <path d="M35 80 L65 80" stroke="#2C3E50" stroke-width="4" fill="none" stroke-linecap="round"/>
  
  <rect x="42" y="19" width="16" height="10" rx="7" ry="5" fill="url(#bgGradient)" stroke="#2C3E50" stroke-width="4"/>
  
  <circle cx="36" cy="52" r="7" fill="url(#eyeGradient)"/>
  <circle cx="64" cy="52" r="7" fill="url(#eyeGradient)"/>

  <circle cx="38" cy="50" r="3.5" fill="url(#bgGradient)"/>
  <circle cx="66" cy="50" r="3.5" fill="url(#bgGradient)"/>
  
  <path d="M40 64 Q50 72, 60 64" stroke="#2C3E50" stroke-width="4" fill="none" stroke-linecap="round"/>
  
  <path d="M53 46 L47 52 L53 52 L48 60" stroke="#FFAA33" stroke-width="4" fill="none" stroke-linecap="round" stroke-linejoin="round"/>
  
  <defs>
    <linearGradient id="bgGradient" x1="0%" y1="0%" x2="100%" y2="100%">
      <stop offset="0%" stop-color="#F0F7FF"/>
      <stop offset="100%" stop-color="#E0EFFA"/>
    </linearGradient>
    <linearGradient id="strokeGradient" x1="0%" y1="0%" x2="100%" y2="100%">
      <stop offset="0%" stop-color="#5A7D9C"/>
      <stop offset="100%" stop-color="#2C3E50"/>
    </linearGradient>
    <linearGradient id="eyeGradient" x1="20%" y1="20%" x2="80%" y2="80%">
      <stop offset="0%" stop-color="#1E2B38"/>
      <stop offset="100%" stop-color="#2C3E50"/>
    </linearGradient>
  </defs>
</svg>